<?xml version="1.0" standalone="no"?>
<svg xmlns:xlink="http://www.w3.org/1999/xlink" id="wave" style="transform:rotate(180deg); transition: 0.3s" viewBox="0 0 1440 490" version="1.1" xmlns="http://www.w3.org/2000/svg"><defs><linearGradient id="sw-gradient-0" x1="0" x2="0" y1="1" y2="0"><stop stop-color="rgba(255, 255, 255, 1)" offset="0%"/><stop stop-color="rgba(255, 255, 255, 1)" offset="100%"/></linearGradient></defs><path style="transform:translate(0, 0px); opacity:1" fill="url(#sw-gradient-0)" d="M0,147L40,130.7C80,114,160,82,240,81.7C320,82,400,114,480,147C560,180,640,212,720,228.7C800,245,880,245,960,236.8C1040,229,1120,212,1200,212.3C1280,212,1360,229,1440,261.3C1520,294,1600,343,1680,375.7C1760,408,1840,425,1920,367.5C2000,310,2080,180,2160,122.5C2240,65,2320,82,2400,89.8C2480,98,2560,98,2640,98C2720,98,2800,98,2880,89.8C2960,82,3040,65,3120,65.3C3200,65,3280,82,3360,81.7C3440,82,3520,65,3600,114.3C3680,163,3760,278,3840,277.7C3920,278,4000,163,4080,114.3C4160,65,4240,82,4320,106.2C4400,131,4480,163,4560,147C4640,131,4720,65,4800,65.3C4880,65,4960,131,5040,187.8C5120,245,5200,294,5280,285.8C5360,278,5440,212,5520,171.5C5600,131,5680,114,5720,106.2L5760,98L5760,490L5720,490C5680,490,5600,490,5520,490C5440,490,5360,490,5280,490C5200,490,5120,490,5040,490C4960,490,4880,490,4800,490C4720,490,4640,490,4560,490C4480,490,4400,490,4320,490C4240,490,4160,490,4080,490C4000,490,3920,490,3840,490C3760,490,3680,490,3600,490C3520,490,3440,490,3360,490C3280,490,3200,490,3120,490C3040,490,2960,490,2880,490C2800,490,2720,490,2640,490C2560,490,2480,490,2400,490C2320,490,2240,490,2160,490C2080,490,2000,490,1920,490C1840,490,1760,490,1680,490C1600,490,1520,490,1440,490C1360,490,1280,490,1200,490C1120,490,1040,490,960,490C880,490,800,490,720,490C640,490,560,490,480,490C400,490,320,490,240,490C160,490,80,490,40,490L0,490Z"/></svg>