<?xml version="1.0" standalone="no"?>
<svg xmlns:xlink="http://www.w3.org/1999/xlink" id="wave" style="transform:rotate(180deg); transition: 0.3s" viewBox="0 0 1440 300" version="1.1" xmlns="http://www.w3.org/2000/svg"><defs><linearGradient id="sw-gradient-0" x1="0" x2="0" y1="1" y2="0"><stop stop-color="rgba(37, 95, 56, 1)" offset="0%"/><stop stop-color="rgba(37, 95, 56, 1)" offset="100%"/></linearGradient></defs><path style="transform:translate(0, 0px); opacity:1" fill="url(#sw-gradient-0)" d="M0,150L240,125C480,100,960,50,1440,30C1920,10,2400,20,2880,55C3360,90,3840,150,4320,155C4800,160,5280,110,5760,80C6240,50,6720,40,7200,35C7680,30,8160,30,8640,55C9120,80,9600,130,10080,135C10560,140,11040,100,11520,70C12000,40,12480,20,12960,25C13440,30,13920,60,14400,65C14880,70,15360,50,15840,45C16320,40,16800,50,17280,85C17760,120,18240,180,18720,205C19200,230,19680,220,20160,200C20640,180,21120,150,21600,130C22080,110,22560,100,23040,100C23520,100,24000,110,24480,95C24960,80,25440,40,25920,20C26400,0,26880,0,27360,30C27840,60,28320,120,28800,165C29280,210,29760,240,30240,250C30720,260,31200,250,31680,230C32160,210,32640,180,33120,145C33600,110,34080,70,34320,50L34560,30L34560,300L34320,300C34080,300,33600,300,33120,300C32640,300,32160,300,31680,300C31200,300,30720,300,30240,300C29760,300,29280,300,28800,300C28320,300,27840,300,27360,300C26880,300,26400,300,25920,300C25440,300,24960,300,24480,300C24000,300,23520,300,23040,300C22560,300,22080,300,21600,300C21120,300,20640,300,20160,300C19680,300,19200,300,18720,300C18240,300,17760,300,17280,300C16800,300,16320,300,15840,300C15360,300,14880,300,14400,300C13920,300,13440,300,12960,300C12480,300,12000,300,11520,300C11040,300,10560,300,10080,300C9600,300,9120,300,8640,300C8160,300,7680,300,7200,300C6720,300,6240,300,5760,300C5280,300,4800,300,4320,300C3840,300,3360,300,2880,300C2400,300,1920,300,1440,300C960,300,480,300,240,300L0,300Z"/></svg>